<?xml version="1.0" encoding="UTF-8"?>
<svg xmlns="http://www.w3.org/2000/svg" xmlns:xlink="http://www.w3.org/1999/xlink" width="16px" height="16px" viewBox="0 0 16 16" version="1.1">
<g id="surface1">
<path style=" stroke:none;fill-rule:nonzero;fill:rgb(0%,0%,0%);fill-opacity:1;" d="M 12.472656 3.664062 L 3.511719 3.664062 C 3.300781 3.664062 3.097656 3.753906 2.953125 3.90625 C 2.804688 4.058594 2.726562 4.265625 2.730469 4.480469 L 3.035156 14.546875 C 3.050781 14.96875 3.394531 15.308594 3.816406 15.308594 L 4.476562 15.308594 L 4.476562 14.621094 C 4.476562 13.832031 5.109375 13.179688 5.898438 13.179688 L 10.085938 13.179688 C 10.875 13.179688 11.519531 13.832031 11.519531 14.621094 L 11.519531 15.308594 L 12.167969 15.308594 C 12.589844 15.308594 12.9375 14.96875 12.949219 14.546875 L 13.253906 4.480469 C 13.261719 4.269531 13.179688 4.058594 13.03125 3.90625 C 12.886719 3.753906 12.683594 3.664062 12.472656 3.664062 Z M 12.472656 3.664062 "/>
<path style=" stroke:none;fill-rule:nonzero;fill:rgb(0%,0%,0%);fill-opacity:1;" d="M 10.117188 14.246094 L 5.929688 14.246094 C 5.730469 14.246094 5.542969 14.386719 5.542969 14.621094 L 5.542969 15.636719 C 5.542969 15.851562 5.714844 15.996094 5.929688 15.996094 L 10.117188 15.996094 C 10.324219 15.996094 10.488281 15.839844 10.488281 15.636719 L 10.488281 14.621094 C 10.488281 14.414062 10.324219 14.246094 10.117188 14.246094 Z M 10.117188 14.246094 "/>
<path style=" stroke:none;fill-rule:nonzero;fill:rgb(0%,0%,0%);fill-opacity:1;" d="M 13.996094 0.886719 C 13.996094 0.398438 13.597656 0 13.105469 0 L 2.890625 0 C 2.402344 0 2.003906 0.398438 2.003906 0.886719 L 2.003906 1.898438 C 2.003906 2.390625 2.402344 2.785156 2.890625 2.785156 L 13.105469 2.785156 C 13.597656 2.785156 13.992188 2.390625 13.992188 1.898438 Z M 13.996094 0.886719 "/>
</g>
</svg>
